<?xml version="1.0" encoding="iso-8859-1"?>
<!-- Generator: Adobe Illustrator 24.3.0, SVG Export Plug-In . SVG Version: 6.00 Build 0)  -->
<svg version="1.1" id="&#xB808;&#xC774;&#xC5B4;_1" xmlns="http://www.w3.org/2000/svg" xmlns:xlink="http://www.w3.org/1999/xlink"
	 x="0px" y="0px" viewBox="0 0 235 36" style="enable-background:new 0 0 235 36;" xml:space="preserve">
<g>
	<g>
		<g>
			<path style="fill:#766340;" d="M110.78,34.574h-0.001c-0.041-0.007-0.067-0.002-0.095,0.003c-0.01,0.002-0.021,0.005-0.037,0.005
				c-0.13,0-0.145-0.008-0.25-0.12l-1.843-2.172l1.554-1.69c0.234-0.254,0.52-0.604,0.652-1.02c0.028-0.103,0.001-0.172-0.028-0.21
				c-0.045-0.066-0.127-0.105-0.234-0.113l-0.744-0.04c-0.229-0.024-0.308,0.094-0.363,0.213l-0.021,0.047
				c-0.17,0.396-0.195,0.453-0.385,0.684l-1.695,2.057v-2.641c0-0.191-0.141-0.327-0.346-0.327h-0.712
				c-0.202,0-0.345,0.137-0.345,0.327v5.726c0,0.19,0.142,0.325,0.345,0.325h0.712c0.205,0,0.346-0.135,0.346-0.325v-2.576
				l1.863,2.415c0.231,0.304,0.516,0.587,1.018,0.587c0.315,0,0.394-0.034,0.511-0.081l0.022-0.007
				c0.194-0.065,0.305-0.185,0.305-0.337l-0.027-0.52C110.973,34.653,110.889,34.574,110.78,34.574"/>
			<path style="fill:#766340;" d="M115.786,29.172c-1.893,0-2.979,1.206-2.979,3.309s1.086,3.309,2.979,3.309
				c1.923,0,2.984-1.176,2.984-3.309C118.77,30.379,117.683,29.172,115.786,29.172 M115.786,34.778
				c-1.267,0-1.489-0.741-1.489-2.297c0-1.754,0.347-2.286,1.489-2.286c1.147,0,1.498,0.532,1.498,2.286
				C117.283,34.036,117.058,34.778,115.786,34.778"/>
			<path style="fill:#766340;" d="M126.118,34.582c-0.035,0-0.065,0.004-0.095,0.009c-0.018,0.004-0.037,0.006-0.055,0.006
				c-0.134,0-0.146,0-0.231-0.123l-1.23-1.662c1.073-0.197,1.591-0.782,1.591-1.784c0-1.196-0.763-1.78-2.341-1.78h-1.876
				c-0.322,0-0.555,0.224-0.555,0.531v5.522c0,0.19,0.141,0.325,0.345,0.325h0.722c0.201,0,0.335-0.131,0.335-0.325v-5.084h0.8
				c0.83,0,1.082,0.239,1.082,1.014c0,0.774-0.287,1.048-1.099,1.048l-0.592-0.03v0.396l1.635,2.5
				c0.273,0.415,0.564,0.592,0.978,0.592c0.322,0,0.405-0.035,0.52-0.079l0.021-0.012c0.213-0.068,0.324-0.192,0.303-0.338
				l-0.051-0.518C126.317,34.676,126.243,34.597,126.118,34.582"/>
			<path style="fill:#766340;" d="M132.818,34.582h-2.567v-1.799h1.607c0.204,0,0.342-0.134,0.342-0.327v-0.389
				c0-0.199-0.136-0.327-0.342-0.327h-1.607v-1.435h2.475c0.204,0,0.345-0.133,0.345-0.328v-0.39c0-0.201-0.141-0.338-0.345-0.338
				h-3.312c-0.324,0-0.557,0.224-0.557,0.531v5.316c0,0.309,0.234,0.531,0.557,0.531h3.405c0.204,0,0.345-0.135,0.345-0.325v-0.392
				C133.163,34.707,133.031,34.582,132.818,34.582"/>
			<path style="fill:#766340;" d="M138.88,29.65c-0.113-0.271-0.289-0.401-0.544-0.401h-0.712c-0.252,0-0.442,0.14-0.553,0.401
				c-0.016,0.044-1.684,4.164-1.996,4.97c-0.111,0.282-0.197,0.653-0.206,0.722c-0.023,0.099,0.009,0.164,0.039,0.201
				c0.03,0.037,0.092,0.083,0.206,0.083l0,0l0.754,0.036c0.136,0,0.236-0.082,0.273-0.222c0.007-0.028,0.016-0.072,0.028-0.127
				c0.028-0.117,0.069-0.297,0.123-0.43l0.312-0.877h2.6l0.322,0.887c0.039,0.101,0.065,0.215,0.09,0.326
				c0.016,0.072,0.032,0.141,0.051,0.209c0.044,0.164,0.141,0.241,0.31,0.241l0,0l0.874-0.032c0.088,0,0.164-0.034,0.213-0.09
				c0.039-0.047,0.056-0.11,0.046-0.173c-0.035-0.23-0.12-0.544-0.208-0.755L138.88,29.65z M138.841,32.993h-1.864l0.81-2.072
				c0.063-0.151,0.095-0.349,0.113-0.498c0.016,0.149,0.046,0.345,0.106,0.497L138.841,32.993z"/>
			<path style="fill:#766340;" d="M148.416,29.257h-0.585c-0.201,0-0.338,0.132-0.338,0.33l0.035,3.498
				c0.007,0.466,0.116,1.013,0.162,1.224h-0.011c-0.063-0.17-0.285-0.754-0.446-1.039l-2.038-3.66
				c-0.164-0.299-0.349-0.353-0.675-0.353h-0.705c-0.21,0-0.46,0.084-0.46,0.491v5.553c0,0.194,0.134,0.325,0.333,0.325h0.587
				c0.203,0,0.335-0.131,0.335-0.325l-0.035-3.499c-0.007-0.466-0.113-1.015-0.162-1.226h0.014c0.062,0.172,0.282,0.751,0.444,1.04
				l2.04,3.659c0.162,0.301,0.347,0.352,0.673,0.352h0.705c0.21,0,0.465-0.083,0.465-0.487v-5.553
				C148.754,29.389,148.618,29.257,148.416,29.257"/>
			<path style="fill:#766340;" d="M158.787,29.249h-3.312c-0.321,0-0.557,0.224-0.557,0.531v5.522c0,0.194,0.137,0.325,0.335,0.325
				h0.722c0.201,0,0.338-0.131,0.338-0.325v-2.339h1.607c0.204,0,0.347-0.135,0.347-0.327v-0.392c0-0.194-0.139-0.328-0.347-0.328
				h-1.607v-1.61h2.475c0.204,0,0.345-0.133,0.345-0.328v-0.39C159.132,29.385,158.991,29.249,158.787,29.249"/>
			<path style="fill:#766340;" d="M163.728,29.172c-1.892,0-2.977,1.206-2.977,3.309s1.085,3.309,2.977,3.309
				c1.924,0,2.986-1.176,2.986-3.309C166.714,30.379,165.624,29.172,163.728,29.172 M163.728,34.778
				c-1.267,0-1.489-0.741-1.489-2.297c0-1.754,0.349-2.286,1.489-2.286c1.149,0,1.499,0.532,1.499,2.286
				C165.226,34.036,165.002,34.778,163.728,34.778"/>
			<path style="fill:#766340;" d="M173.042,34.573h-2.371v-4.997c0-0.191-0.139-0.327-0.345-0.327h-0.712
				c-0.204,0-0.345,0.137-0.345,0.327v5.52c0,0.349,0.278,0.531,0.555,0.531h3.217c0.206,0,0.345-0.135,0.345-0.325v-0.392
				C173.386,34.708,173.25,34.573,173.042,34.573"/>
			<path style="fill:#766340;" d="M180.385,34.574h-0.002c-0.042-0.007-0.065-0.002-0.092,0.003
				c-0.011,0.002-0.023,0.005-0.039,0.005c-0.13,0-0.143-0.008-0.247-0.12l-1.843-2.172l1.552-1.69
				c0.234-0.254,0.52-0.604,0.652-1.02c0.028-0.104,0-0.172-0.028-0.21c-0.046-0.066-0.127-0.105-0.236-0.113l-0.742-0.04
				c-0.224-0.023-0.305,0.094-0.361,0.213l-0.023,0.05c-0.167,0.383-0.194,0.451-0.384,0.681l-1.695,2.057v-2.641
				c0-0.191-0.143-0.327-0.345-0.327h-0.712c-0.204,0-0.345,0.137-0.345,0.327v5.726c0,0.19,0.141,0.325,0.345,0.325h0.712
				c0.201,0,0.345-0.135,0.345-0.325v-2.576l1.864,2.415c0.22,0.293,0.513,0.587,1.018,0.587c0.312,0,0.396-0.034,0.509-0.081
				l0.023-0.007c0.194-0.065,0.305-0.185,0.305-0.337l-0.025-0.52C180.577,34.653,180.496,34.574,180.385,34.574"/>
			<path style="fill:#766340;" d="M191.152,29.275l-0.712-0.043h-0.03c-0.201,0-0.259,0.133-0.291,0.275
				c-0.018,0.07-0.032,0.147-0.044,0.224c-0.018,0.101-0.032,0.206-0.067,0.308l-1.237,3.931c-0.049,0.148-0.074,0.334-0.09,0.478
				c-0.012-0.143-0.037-0.33-0.086-0.478l-1.242-3.942c-0.042-0.113-0.062-0.223-0.081-0.332c-0.014-0.064-0.028-0.127-0.044-0.19
				c-0.037-0.132-0.092-0.274-0.294-0.274l-0.874,0.043c-0.099,0.007-0.173,0.039-0.222,0.101c-0.028,0.039-0.062,0.106-0.042,0.214
				c0.018,0.111,0.09,0.494,0.173,0.733l1.749,4.893c0.092,0.253,0.31,0.411,0.569,0.411h0.68c0.266,0,0.495-0.158,0.587-0.412
				l1.688-4.892c0.09-0.264,0.141-0.553,0.169-0.712l0.005-0.018c0.021-0.102-0.009-0.165-0.039-0.204
				C191.332,29.327,191.253,29.287,191.152,29.275"/>
			<path style="fill:#766340;" d="M194.866,29.249h-0.703c-0.201,0-0.338,0.131-0.338,0.33v5.723c0,0.194,0.136,0.325,0.338,0.325
				h0.703c0.204,0,0.345-0.135,0.345-0.325v-5.723C195.211,29.385,195.07,29.249,194.866,29.249"/>
			<path style="fill:#766340;" d="M201.881,34.573h-2.373v-4.997c0-0.191-0.141-0.327-0.345-0.327h-0.712
				c-0.201,0-0.345,0.137-0.345,0.327v5.52c0,0.349,0.28,0.531,0.555,0.531h3.219c0.204,0,0.342-0.135,0.342-0.325v-0.392
				C202.223,34.713,202.085,34.573,201.881,34.573"/>
			<path style="fill:#766340;" d="M208.105,34.573h-2.373v-4.997c0-0.191-0.141-0.327-0.345-0.327h-0.712
				c-0.204,0-0.347,0.137-0.347,0.327v5.52c0,0.349,0.28,0.531,0.558,0.531h3.219c0.201,0,0.345-0.135,0.345-0.325v-0.392
				C208.45,34.708,208.311,34.573,208.105,34.573"/>
			<path style="fill:#766340;" d="M213.968,29.65c-0.109-0.271-0.287-0.401-0.539-0.401h-0.712c-0.254,0-0.444,0.14-0.553,0.401
				c-0.018,0.044-1.686,4.164-1.996,4.97c-0.111,0.283-0.199,0.653-0.206,0.722c-0.023,0.099,0.009,0.164,0.037,0.201
				c0.03,0.037,0.092,0.083,0.208,0.083l0,0l0.752,0.036c0.139,0,0.236-0.082,0.271-0.222c0.009-0.028,0.021-0.073,0.035-0.128
				c0.025-0.125,0.067-0.297,0.118-0.429l0.315-0.877h2.597l0.321,0.887c0.042,0.101,0.067,0.215,0.093,0.325
				c0.016,0.073,0.032,0.142,0.051,0.211c0.044,0.164,0.139,0.241,0.308,0.241l0,0l0.874-0.032c0.088,0,0.164-0.034,0.213-0.09
				c0.039-0.047,0.056-0.11,0.046-0.173c-0.035-0.23-0.12-0.544-0.21-0.755L213.968,29.65z M213.931,32.993h-1.864l0.81-2.072
				c0.062-0.151,0.095-0.349,0.113-0.498c0.016,0.149,0.049,0.347,0.106,0.497L213.931,32.993z"/>
			<path style="fill:#766340;" d="M223.136,32.153c-0.014,0-0.028,0-0.042,0l-0.886,0.06c-0.095,0.008-0.16,0.051-0.197,0.117
				c-0.032,0.054-0.042,0.124-0.03,0.222c0.014,0.084,0.028,0.156,0.037,0.221c0.037,0.191,0.065,0.34,0.065,0.618v1.383
				c-0.127,0.025-0.435,0.082-0.692,0.082c-1.55-0.009-1.846-0.822-1.846-2.331c0-1.551,0.294-2.289,1.957-2.289
				c0.476,0,1.052,0.13,1.427,0.251c0.058,0.021,0.113,0.032,0.16,0.032c0.081,0,0.222-0.032,0.259-0.241l0.076-0.416
				c0.032-0.178,0.039-0.337-0.208-0.429c-0.435-0.146-1.073-0.244-1.587-0.244c-2.299,0-3.564,1.165-3.564,3.275
				c0,2.128,1.18,3.302,3.317,3.302c0.46,0,0.962-0.071,1.314-0.183c0.583-0.171,0.791-0.348,0.791-1.013v-1.213
				c0-0.348-0.016-0.532-0.053-0.844C223.416,32.369,223.386,32.153,223.136,32.153"/>
			<path style="fill:#766340;" d="M230.216,34.582h-2.567v-1.799h1.607c0.204,0,0.345-0.134,0.345-0.327v-0.389
				c0-0.199-0.139-0.327-0.345-0.327h-1.607v-1.435h2.472c0.208,0,0.345-0.133,0.345-0.328v-0.39c0-0.201-0.136-0.338-0.345-0.338
				h-3.312c-0.322,0-0.557,0.224-0.557,0.531v5.316c0,0.309,0.236,0.531,0.557,0.531h3.407c0.201,0,0.345-0.135,0.345-0.325v-0.392
				C230.561,34.707,230.429,34.582,230.216,34.582"/>
		</g>
		<path style="fill:#766340;" d="M127.522,9.433c-0.153,0.804-0.507,1.041-1.124,1.077c-0.629,0.049-1.286-0.036-1.908-0.237
			c-0.631-0.194-0.939,0.079-0.902,0.516c0.049,0.441,0.072,0.601-0.118,0.996c-0.199,0.396,0.081,1.078-0.069,1.471
			c-0.164,0.394-0.079,0.637-0.13,1.197c-0.035,0.565,0,0.759-0.104,1.197c-0.125,0.437,0,0.993-0.546,1.036
			c-0.553,0.036-1.136,0.12-1.485,0.201c-0.352,0.075-0.666-0.408-0.733-0.761c-0.086-0.357,0.224-1.239,0.224-1.471
			c0-0.243,0.236-1.154,0.319-1.551c0.067-0.402,0.419-1.44,0.266-1.764c-0.148-0.319-0.199-1.471-0.386-1.829
			c-0.199-0.363,0.187-0.923,0.266-1.156c0.083-0.243,0-0.803,0.12-1.153c0.113-0.364,0-0.766-0.148-0.921
			c-0.167-0.158-0.437-0.991-0.358-1.402c0.079-0.389-0.303-0.953-0.201-1.428c0.123-0.487,0.053-1.041,0.201-1.358
			c0,0,0.358-0.438,0.701-0.591c0.349-0.169,0.814-0.245,1.214,0.43c0.382,0.677,0.502,1.397,0.615,1.921
			c0.123,0.509,0.086,1.391,0.035,2.115c-0.035,0.714,0.164,1.514,0.858,1.514c0.701,0,2.026-0.2,2.535,0.318
			C127.175,8.321,127.686,8.633,127.522,9.433 M123.123,20.054c-0.312-0.157-0.277,0.083-0.816-0.08
			c-0.551-0.162-1.876,0.036-2.297,0.036c-0.437,0-0.9,0-1.133-0.074c-0.227-0.084-4.203-0.084-5.028,0
			c-0.814,0.074-2.837,0.201-3.581,0.118c-0.74-0.08-1.089,0.754-1.323-0.642c-0.236-1.397-0.435-1.994-0.587-2.388
			c-0.157-0.4-0.927-0.563-1.627-0.4c-0.707,0.155-1.024,0.712-1.024,0.712c-0.191,0.917-0.583,1.12-0.039,1.877
			c0.548,0.761,0.123,0.924-0.069,1.315c-0.193,0.397-0.744,1.326-0.818,1.595c-0.077,0.283-0.077,1.44,0.454,1.836
			c0.555,0.406,1.717,0.161,2.073-0.194c0.347-0.364,1.049-0.566,1.714-0.646c0.66-0.076,0.701,0.043,1.518-0.115
			c0.814-0.161,1.131,0.195,1.944-0.047c0.825-0.242,0.899,0.243,1.946,0c1.059-0.242,1.094,0.162,1.878-0.035
			c0.775-0.207,1.481,0.155,1.948,0.12c0.463-0.038,0.812,0.241,1.557,0.323c0.745,0.069,2.015,0.309,2.526,0.155
			c0.507-0.155,0.703-0.155,1.365-0.32c0.664-0.157,0.814-0.512,0.856-1.077c0.049-0.557-0.069-1.315-0.231-1.634
			C124.173,20.164,123.435,20.207,123.123,20.054 M152.327,8.234c-0.345-0.044-1.277-0.281-1.436-0.407
			c-0.153-0.115-0.31-0.436,0.312-0.672c0.625-0.242,1.2-1.071,1.011-1.714c-0.197-0.638-0.58-2.866-2.338-3.509
			c-1.746-0.632-1.984-0.323-2.644-0.153c-0.661,0.153-3.157-0.277-4.013,0c-0.856,0.266-1.441-0.4-2.563-0.322
			c-1.136,0.072-1.795-0.079-2.348,0.116c-0.546,0.206-1.515,0.237-2.294,0.206c-0.786-0.046-1.439,0-2.304,0.234
			c-0.856,0.237-1.943,0.12-2.299,0.397c0,0-1.2,0.996-0.696,1.792c0.511,0.803,1.133,0.4,1.79,0.32
			c0.664-0.081,1.365,0.201,1.991,0.246c0.622,0.034,1.244-0.206,1.712-0.166c0.467,0.044,0.939,0,1.052-0.112
			c0.111-0.128,1.323,0.112,1.637,0.112c0.308,0,0.537-0.112,1.244,0.044c0.705,0.156,1.05-0.156,1.367-0.083
			c0.31,0.083,1.163,0.083,1.79,0.083c0.62,0,0.927,0.359,1.397,0.156c0.467-0.2,1.052-0.2,1.559-0.112
			c0.509,0.079,1.399,0.112,1.594,0.552c0.204,0.438,0.312,1.118,0.703,1.118c0.386,0,0.118,0.711,0.118,0.875
			c0,0.155,0,0.642-0.705,0.642c-0.698,0-1.24,0.116-1.554,0.075c-0.308-0.043-1.362-0.319-1.677-0.075
			c-0.308,0.234-0.187-0.244-1.677-0.165c-1.471,0.088-2.098-0.119-2.401-0.241c-0.319-0.113-1.529-0.236-2.771,0.046
			c-1.249,0.282-1.328-0.083-1.712-0.083c-0.393,0-1.677,0.237-2.336,0.278c-0.668,0.036-1.76,0.241-2.426,0.281
			c-0.657,0.039-1.399,0.518-1.439,0.8c-0.032,0.271-0.46,1.794,0.742,1.988c1.21,0.194,1.79-0.153,2.253-0.153
			c0.481,0,0.937,0.113,1.563,0.031c0.631-0.073,1.328,0.203,1.793-0.073c0.47-0.282,1.36-0.124,1.748,0.042
			c0.398,0.153,1.362-0.042,1.642,0.593c0.271,0.637,0.622,1.795,0.583,2.075c-0.039,0.276,0.428,1.233,1.168,1.003
			c0.742-0.245,1.015-0.407,1.323-0.53c0.315-0.12,0.661-1.11,0.587-1.466c-0.076-0.367,0.426-1.36,0.618-1.478
			c0.197-0.121,0.553-0.044,1.094-0.044c0.543,0,1.517-0.121,2.065,0.044c0.541,0.15,1.325-0.083,1.672-0.165
			c0.352-0.073,0.393,0.247,1.05,0.165c0.664-0.083,1.094-0.083,1.448-0.083c0.345,0,1.126,0.439,1.207-0.712
			c0.074-1.16,0.197-0.557,0.391-0.799C153.114,8.993,152.686,8.27,152.327,8.234 M151.592,18.465c0-0.322-0.389-0.634-0.467-1.033
			c-0.074-0.399-0.775-0.963-1.094-1.08c-0.308-0.111-1.011-0.593-1.522-0.474c-0.504,0.12-0.659-0.517-1.707-0.2
			c-1.052,0.32-1.594-0.158-2.297,0.04c-0.703,0.2-1.786,0.082-2.024-0.199c-0.236-0.282-0.62-0.086-0.939-0.205
			c-0.312-0.117-0.932-0.522-1.716-0.393c-0.768,0.117-1.709,0.235-2.364,0.235c-0.668,0-0.745,0.127-1.288,0.127
			c-0.55,0-2.849,0.111-3.437,0.435c0,0-2.022,0.634-2.336,0.556c-0.31-0.081-1.249,1.232-0.888,1.633
			c0.342,0.398,0.932,0.92,2.912,0.601c1.989-0.318,2.928-0.444,3.784-0.444c0.856,0,1.554-0.19,2.1-0.112
			c0.553,0.077,1.677-0.201,1.95-0.045c0.266,0.157,1.207,0.236,1.871,0.123c0.659-0.123,1.045,0.113,1.587,0.161
			c0.553,0.031,1.448,0,1.728-0.202c0.266-0.192,0.967,0.281,1.469,0.362c0.509,0.084,0.978,0.28,1.052,0.636
			c0.088,0.353,0.164,1.634,0,1.903c-0.15,0.286-0.19,0.725,0,1.281c0.197,0.555-0.032,1.075,0.312,1.428
			c0.354,0.37,0.231,0.522,0.786,0.562c0.55,0.043,1.397-0.68,1.906-0.634c0.504,0.035,0.858-1.082,0.819-1.64
			c-0.039-0.553,0.039-0.998-0.197-1.627C151.361,19.618,151.592,18.784,151.592,18.465 M178.458,11.303
			c0.162-1.434-0.187-2.072-0.028-3.31c0.16-1.235-0.354-1.676-0.465-2.156c-0.123-0.479-0.234-1.141-0.086-1.622
			c0.16-0.478-0.148-0.715-0.238-1.036c-0.074-0.325,0-1.914-1.751-1.753c0,0-0.615,0.476-0.736,1.79
			c-0.123,1.325-0.312,1.325-0.238,1.835c0.083,0.526,0.273,1.424,0.358,1.742c0.067,0.323,0.185,1.284,0.229,1.634
			c0.032,0.367-0.504,0.72-0.386,1.203c0.118,0.48,0,1.278,0.224,1.71c0.236,0.444-0.067,1.122,0,1.833
			c0.086,0.719-0.934,1.878,0.548,2.077c1.48,0.196,2.341,0.32,2.773-1.038C179.088,12.862,178.313,12.735,178.458,11.303
			 M176.698,20.775c-0.282-0.279-0.877-0.739-1.184-0.575c-0.31,0.158-1.015,0.131-2.267,0.006
			c-1.254-0.126-0.678,0.215-1.476,0.037c-0.981-0.22-1.291-0.043-1.756-0.119c-0.472-0.07-1.214-0.327-1.362-0.131
			c-0.155,0.208-0.749-0.142-2.026,0.092c-1.286,0.232-1.681-0.199-3.812,0.207c-2.132,0.406-1.806-0.312-2.01-0.709
			c-0.206-0.392,0.12-2.359-0.645-3.373c-0.768-1.03-1.719-0.081-1.719-0.081c-0.155-0.036-0.733,0.333-0.833,0.895
			c-0.113,0.561,0.303,2.1,0.289,2.823c-0.03,0.718-0.953,1.388-0.953,1.388c-0.738,1.566-0.065,1.708,0.088,2.057
			c0.164,0.356,1.147,0.696,1.661,0.726c0.5,0.028,0.897,0.265,1.092,0.094c0.194-0.169,1.554-0.31,1.554-0.31
			c0.766-0.142,1.624-0.283,2.553-0.426c0.932-0.14,1.015,0.058,1.718,0.08c0.701,0.024,0.736-0.092,1.166-0.148
			c0.428-0.047,0.712,0.189,1.644,0.005c0.923-0.177,0.659,0.308,1.52,0.249c0.849-0.065,1.406,0.282,2.102,0.102
			c0.696-0.17,1.099,0.171,1.485,0.046c0.386-0.123,1.205-0.217,1.709-0.037c0.516,0.193,0.585,0.193,1.325,0.05
			c0.738-0.134,0.886-0.503,0.879-0.777c-0.005-0.281,0.335-0.81,0.322-1.398C177.751,20.947,176.976,21.038,176.698,20.775
			 M184.525,9.766c0.236-0.042,0.349,0.082,0.472,0.245c0.116,0.15,0.502,0.36,0.657,0.511c0.148,0.157,0.664,0.274,0.749,0
			c0.069-0.284,0.453-0.798,0.81-0.88c0.356-0.082,0.553-0.517,0.86-0.83c0.305-0.327,0.273-0.763,0.895-0.884
			c0.615-0.116,0.534-0.309,0.696-0.516c0.162-0.202,0.625-0.642,0.782-0.875c0.157-0.243,0.423-0.677,0.502-0.835
			c0.079-0.163,0-0.362,0.516-0.764c0.499-0.394,1.362-0.319,1.67-0.162c0.305,0.162,1.64,1.126,1.827,1.243
			c0.19,0.119,1.048,0.199,1.332,0.438c0.266,0.232,0.814,0.276,1.085,0.313c0.278,0.044,0.666,0.199,0.983,0.522
			c0.308,0.327,0.654,0.076,0.925,0.438c0.278,0.354,0.981,0.235,1.404,0.56c0.43,0.32,1.249,1.117,2.065,1.079
			c0.812-0.043,1.434-1.404,1.404-2.033c-0.042-0.646-0.784-0.879-1.015-1.118c-0.241-0.245-0.856-0.199-1.288-0.562
			c-0.428-0.36-1.048-0.637-1.207-0.833c-0.148-0.205-0.974-0.557-1.207-0.402c-0.227,0.163-0.698-0.199-0.93-0.356
			c-0.234-0.157-1.013-0.239-1.598-0.567c-0.59-0.306-0.742-0.275-1.952-0.229c-1.198,0.037-1.277-0.683-1.668-0.918
			c-0.396-0.238,0.185-0.399-0.779-1.074c-0.978-0.683-2.151-0.08-2.151,0.435c0,0.516-0.81,1.715-0.81,1.715
			c-0.162,0.243-1.365,0.911-1.48,1.117c-0.12,0.197-0.631,0.718-0.821,0.875c-0.194,0.158-0.666,0.916-0.849,1.078
			c-0.201,0.158-0.627,0.237-0.835,0.519c-0.183,0.276-0.886,1.033-1.156,1.317c-0.271,0.278-0.43,0.552-0.396,0.833
			C184.06,9.445,184.296,9.801,184.525,9.766 M203.525,11.507c-0.266-0.08-0.539,0.037-1.126,0.037
			c-0.574,0-1.672-0.198-2.373,0.044c-0.696,0.237-2.186,0.237-2.921,0.04c-0.742-0.201-1.358-0.282-1.478-0.555
			c-0.118-0.282-0.356-0.961-0.435-1.244c-0.074-0.282,0.241-0.604-0.506-1.117c-0.738-0.511-0.065-0.996-0.812-0.996
			c-0.74,0-0.55-0.598-1.207-0.116c-0.666,0.472-0.904,0.877-0.971,1.111c0,0-0.548,0.363,0.229,1.154
			c0.782,0.803-0.347,1.122-0.393,1.359c-0.035,0.235-1.749,0.121-2.283,0.319c-0.551,0.201-1.566,0-2.274,0.123
			c-0.699,0.124-1.827,0.037-2.678,0.232c-0.858,0.206-1.836,0.364-2.068,0.888c-0.231,0.515-0.74,1.111,0.083,1.229
			c0.809,0.125,1.279,0.276,1.436,0.202c0.157-0.077,1.205-0.12,1.52-0.039c0.301,0.079,1.133,0.361,2.065,0.079
			c0.932-0.282,1.552-0.242,2.024-0.202c0.47,0.043,1.205-0.203,1.513,0.163c0.213,0.247,1.522-0.077,1.797-0.163
			c0.266-0.08,0.742-0.274,1.436-0.203c0.703,0.088,1.406,0.327,2.19,0.203c0.77-0.116,1.982,0.086,2.449,0
			c0.469-0.08,0.853,0.361,1.089,0.274c0.241-0.072,0.782,0.127,0.937,0.043c0.153-0.08,0.937-0.274,1.203-0.231
			c0.275,0.038,1.212-0.086,1.684-0.086c0.463,0,1.399,0.237,1.307-0.561c-0.069-0.793-0.069-1.307-0.495-1.67
			C204.037,11.459,203.805,11.588,203.525,11.507 M204.159,20.745c0.072-0.441-0.123-1.442-0.31-1.839
			c-0.194-0.389,0.037-1.59-0.194-1.87c-0.236-0.284-0.752-0.805-0.828-0.959c-0.072-0.156-0.777-0.71-1.166-0.674
			c-0.382,0.039-0.587-0.199-1.286-0.116c-0.701,0.08-3.543,0.155-4.242,0c-0.701-0.167-1.094,0.031-1.487-0.167
			c-0.384-0.2-1.596,0-2.408-0.036c-0.816-0.043-2.22,0.119-2.926,0.119c-0.701,0-2.301-0.232-3.113-0.082
			c-0.835,0.165-3.111,0.442-3.423,0.835c0,0-1.207,0.882-0.745,1.719c0.47,0.842,1.057,0.597,1.598,0.511
			c0.551-0.069,1.677,0.242,2.065-0.069c0.384-0.324,0.506-0.324,1.094-0.282c0.571,0.036,1.91-0.079,2.294-0.042
			c0.386,0.042,1.598-0.322,2.026-0.198c0.426,0.113,0.891,0.275,1.788,0.113c0.895-0.157,1.288,0.162,1.908,0.284
			c0.627,0.124,2.026,0.042,2.257-0.042c0.234-0.081,0.71,0.199,1.517,0.279c0.826,0.083,1.637,0.242,1.765,0.511
			c0.118,0.292,0.539,0.45,0.659,1.404c0.116,0.958-0.16,0.79,0.069,1.274c0.241,0.48-0.153,0.638-0.037,1.155
			c0.123,0.522-0.467,1.591,0.391,1.591c0.86,0,1.758,0.124,2.028-0.426c0.278-0.561,1.052-0.53,0.775-1.119
			C203.956,22.024,204.085,21.184,204.159,20.745 M209.56,5.838c1.332-0.157,1.522-0.362,1.686-0.279
			c0.148,0.086,0.881-0.525,1.321-0.398c0.426,0.128,1.168-0.204,1.473-0.043c0.308,0.171,0.789,0.286,0.932,0.171
			c0.167-0.128,1.446,0.232,0.631,0.833c-0.821,0.597-1.795,1.512-2.225,2.026c-0.425,0.517-0.925,0.916-1.168,1.243
			c-0.229,0.324-1.129,0.478-1.166,0.914c-0.039,0.437-0.19,0.671,0.784,0.952c0.976,0.284,0.888,0.482,1.205,0.642
			c0.31,0.158,0.502,0.038,0.701-0.475c0.192-0.516,0.428-0.48,0.812-0.598c0.391-0.121,0.86-0.956,1.099-1.156
			c0.229-0.197,0.726-0.364,0.888-0.482c0.16-0.123,0.631-0.76,0.983-0.794c0.738-0.082,0.4-0.202,0.696-0.68
			c0.187-0.322,1.136-0.715,1.365-0.799c0.227-0.076,0.544,0.478,0.733,0.638c0.199,0.161,1.048,0.481,1.328,0.638
			c0.271,0.164,1.601,0.874,1.978,1.041c0.405,0.161,0.828,0.399,1.057,0.638c0.234,0.241,0.627,0.328,1.013,0.637
			c0.391,0.319,0.701,0.515,0.895,0.716c0.203,0.201,0.71,0.517,0.784,0.397c0.076-0.116,0.784,0.357,0.784,0.241
			c0-0.12,1.006-0.996,1.006-1.396c0-0.405,0.201-0.834-0.694-1.316c-0.907-0.482-0.941-0.755-1.413-1.27
			c-0.467-0.519-0.937-0.723-1.006-0.927c-0.083-0.192-0.513,0.084-0.742-0.113c-0.234-0.198-0.742-0.753-1.011-0.791
			c-0.268-0.045-1.131-0.524-0.315-0.605c0.814-0.082,1.207,0.081,1.207,0.081s0.541-0.197,0.745-0.081
			c0.185,0.118,0.895,0.081,1.087-0.082c0.199-0.157,0.819-0.325,1.325-0.325c0.509,0,1.247-0.029,1.559-0.029
			c0.31,0,1.094-0.047,1.008-0.563c-0.067-0.516-0.271-1.07-0.578-1.555c-0.319-0.476-0.47-0.476-1.404-0.311
			c-0.939,0.155-1.369-0.046-2.26,0.076c-0.891,0.113-1.483,0.16-2.024,0.113c-0.546-0.035-2.879,0.32-3.312-0.236
			c-0.435-0.558-0.708-0.839-1.052-0.955c-0.345-0.116-0.548-0.274-0.784-0.476c-0.227-0.205-1.237-0.164-1.471,0
			c-0.243,0.16-1.096,0.361-0.703,1.111c0,0,0.895,0.643-0.229,0.93c-1.131,0.267-0.742,0.024-0.976-0.053
			c-0.238-0.078-3.28,0-4.059,0.12c-0.782,0.124-2.993,0.648-3.277,1.441C208.51,5.441,208.237,6.001,209.56,5.838 M230.864,13.585
			c-0.497-0.359-2.919-0.238-3.31-0.121c-0.386,0.121-1.168,0.361-1.977,0.121c-0.828-0.238-1.217,0-1.961-0.042
			c-0.736-0.032-1.742-0.197-2.172-0.432c-0.423-0.244-0.275-1.153-0.275-1.153s-0.16-1.694-0.62-1.839
			c-2.028-0.637-2.614,0.2-2.614,0.2c-0.419,0.754-0.157,0.956-0.157,1.234c0,0.283-0.12,0.076,0.085,1.077
			c0.197,0.999-0.661,0.717-1.013,0.717c-0.356,0-1.173,0.282-1.677,0.238c-0.502-0.042-1.439-0.238-2.181-0.042
			c-0.74,0.2-1.358,0.446-2.065,0.405c-0.705-0.044-1.478,0-2.57,0.752c-1.089,0.762-0.541,1.717-0.312,1.639
			c0.234-0.078,1.799,0.079,2.343,0.039c0.539-0.039,1.082-0.039,2.132-0.201c1.055-0.16,5.068,0.118,5.734-0.079
			c0.659-0.198,3.846,0.197,4.667,0.163c0.821-0.043,3.356-0.121,4.247-0.084c0.902,0.042,0.157-0.112,1.95,0.201
			c1.788,0.32,2.105-0.117,2.417-0.439c0.31-0.312,0.43-1.512,0.43-1.67C231.965,14.111,231.372,13.948,230.864,13.585
			 M230.674,21.823c0.044-0.508-0.423-0.712-1.05-0.796c-0.622-0.081-1.013-0.047-1.679-0.198c-0.655-0.158-1.242,0.117-1.635,0.041
			c-0.384-0.082-0.463,0.201-1.045,0.201c-0.592,0-1.094,0.164-2.068-0.044c-0.971-0.198-3.317-0.047-3.971-0.157
			c-0.664-0.12-1.832,0.046-2.375-0.041c-0.544-0.08-1.485,0.431-1.832,0.317c-0.347-0.119-0.268-0.397-1.443-0.23
			c-1.17,0.155-0.858-1.248-0.858-1.248c0-0.235,0.139-1.529-0.465-1.983c-1.522-1.166-2.692-0.125-2.692-0.125
			c-0.659,0.836-0.736,1.835-0.583,2.195c0.162,0.361,0.659,0.515,0.312,0.995c-0.345,0.486-0.932,0.435-0.657,2.076
			c0.268,1.631,2.53,1.308,3.037,1.274c0.506-0.035,2.102-0.401,2.877-0.276c0.786,0.119,1.253-0.243,1.638-0.204
			c0.393,0.038,0.349-0.039,0.823,0.038c0.46,0.077,1.987,0.285,2.533,0.077c0.541-0.201,0.77-0.037,1.168,0.123
			c0.391,0.161,0.62-0.123,1.011-0.035c0.382,0.074,0.865,0.157,1.286,0.035c0.426-0.123,0.812-0.035,1.483,0.084
			c0.659,0.123,1.286,0.157,1.554,0.076c0.268-0.076,1.478-0.038,1.758,0.046c0.271,0.068,1.161,0,2.285-0.046
			c1.138-0.038,1.217-0.996,1.062-1.122C230.991,22.783,230.635,22.347,230.674,21.823 M156.417,5.522
			c-0.618-0.643-0.305-0.832,0.12-1.631c0.592-1.108,1.834-0.729,1.834-0.729c0.347,0,0.777,0.127,1.284-0.115
			c0.504-0.237,1.166-0.397,1.91-0.237c0.74,0.153,0.463,0.274,1.166-0.081c0.703-0.356,0.659,0.081,1.321,0
			c0.664-0.079,1.605-0.042,1.95-0.121c0.352-0.08,0.944-0.08,1.214,0.355c0.271,0.442,0.893,1.599,0.893,2.278
			c0,0.675,0.31,1.352,0.192,1.913c-0.116,0.557-0.312,1.136-0.039,2.032c0.396,1.277-0.229,0.762-0.775,1.233
			c-0.541,0.488-0.118,1.244-0.238,1.801c-0.116,0.556-1.247,0.439-1.91,0.356c-0.655-0.076-1.64,0.441-1.83,0.441h-1.133
			c-0.347,0-1.082-0.042-1.596-0.042c-0.5,0-0.927,0.078-1.323,0.243c-0.386,0.149-0.849-0.045-1.864-0.201
			c-1.006-0.155-0.823-1.514-0.773-2.041c0.035-0.512,0.46-0.99,0.301-1.149c-0.157-0.157-0.389-0.998-0.352-1.434
			c0.051-0.439,0.28-1.156,0.317-1.753C157.12,6.046,156.417,5.522,156.417,5.522 M160.083,7.993
			c0.12,0.317,0.275,0.518,0.386,1.154c0.12,0.641,0.858,0.679,1.247,0.722c0.396,0.034,0.044,0.328,1.52,0.276
			c1.48-0.036,1.21-0.16,1.517-0.43c0.312-0.284,0.312-0.922,0.312-1.204c0-0.278,0.037-0.711,0.472-0.96
			c0.428-0.238,0.581-0.35,0.465-0.601c-0.113-0.231-0.585-0.475-0.585-0.475c-0.153-0.513-0.814-0.671-1.05-0.557
			c-0.229,0.128-0.738-0.359-1.281-0.316c-0.553,0.043-1.557-0.243-2.264-0.198c-0.689,0.037-0.814,0.315-0.851,0.718
			C159.93,6.518,159.969,7.672,160.083,7.993 M106.452,4.847c-0.582,0.042-1.338,0.117-1.874,0.117
			c-0.507,0-1.127,0.124-0.659-0.881c0.467-0.993,0.86-0.549,1.678-0.753c0,0,1.71-0.043,2.289-0.319
			c0.59-0.28,0.515-0.28,0.442-1.035c0,0,0.653-1.397,2.052-0.87c1.41,0.512,0.475,1.546,2.074,1.625
			c1.592,0.079,2.18,0.522,2.913,0.199c0.751-0.32,1.843-0.353,2.261,0.238c0.428,0.606,0.389,1.638-0.579,1.597
			c-0.976-0.035-1.639,0.04-2.062,0.156c-0.428,0.126-0.904,0.043-1.253,0.25c-0.349,0.189-1.129,0.153-1.359,0.109
			c-0.235-0.032-1.056,0.413,0.031,0.805c1.099,0.399,1.801,0.554,2.228,0.998c0.424,0.436,0.697,0.154,0.936,0.711
			c0.231,0.562,1.049,1.273,1.126,3.314c0.073,2.027-0.077,2.309-0.939,3.069c-0.853,0.754-1.674,1.913-3.466,1.953
			c-1.79,0.041-1.405-0.117-2.567-0.283c-1.169-0.15-1.751-0.558-2.293-0.753c-0.552-0.205-2.338-1.592-2.23-3.716
			c0.118-2.108,0.894-2.83,1.374-3.265c0.465-0.437,1.24-1.631,1.902-1.828c0.663-0.201,1.287-0.681,0.156-0.766
			C107.499,5.436,107.038,4.805,106.452,4.847 M107.972,11.459c0.582,2.077,1.599,1.6,2.645,1.917
			c1.055,0.319,2.692-0.242,3.394-1.311c0.703-1.08,0.384-2.196-0.702-2.87c-1.094-0.681-1.751-0.282-2.188-0.367
			c-0.426-0.077-0.659-0.315-0.896-0.196c-0.232,0.118-0.427,0.036-0.542,0.158C109.682,8.791,107.382,9.391,107.972,11.459"/>
	</g>
	<g>
		<path style="fill:#F4811F;" d="M27.195,23.916c1.23-0.124,2.082-0.781,2.237-1.736c0.361-2.232-1.117-4.73-2.935-6.593
			c-3.225-0.544-6.904-0.6-10.977,0.207v3.617c3.557,2.793,7.543,3.924,9.076,4.279C25.98,24.004,26.723,23.965,27.195,23.916z
			 M26.271,20.1c0.807,0,1.461,0.656,1.461,1.465c0,0.805-0.654,1.461-1.461,1.461c-0.809,0-1.465-0.656-1.465-1.461
			C24.806,20.756,25.463,20.1,26.271,20.1z"/>
		<path style="fill:#F4811F;" d="M29.922,16.373c0.954,1.597,1.687,3.416,1.457,5.664c-0.155,1.485-1.082,3.165-4.724,3.491
			c-2.34,0.208-5.952-0.51-11.135-2.611v8.572c-2.542,0.562-6.525,2.427-9.127,3.97v0.001c-0.077,0.052-0.127,0.14-0.127,0.235
			c0,0.164,0.129,0.295,0.29,0.295c0.019,0,0.038-0.005,0.06-0.007l0,0c3.486-0.746,7.602-1.435,11.741-2.01
			c1.491-2.278,4.539-6.448,7.427-7.271c2.95-0.841,6.239,1.24,4.559,5.946c1.389-0.106,2.69-0.187,3.869-0.237V18.015
			C32.934,17.407,31.499,16.84,29.922,16.373z"/>
		<path style="fill:#F4811F;" d="M27.582,28.677c-1.081-0.333-2.493,0.231-3.583,1.294c-0.983,0.954-2.259,2.514-2.988,3.647
			c2.444-0.31,4.848-0.57,7.092-0.777C28.762,31.025,28.966,29.111,27.582,28.677z"/>
		<g>
			<path style="fill:#E39F14;" d="M47.592,18.276c0,1.658-0.003,3.637,0,5.177l3.11,1.068l-3.11,1.063v6.444
				c2.918,0.024,5.994,0.087,9.074,0.239v-17.63C52.777,15.073,49.954,16.483,47.592,18.276z M36.84,14.638v17.63
				c3.081-0.153,6.153-0.215,9.075-0.239v-6.444l-3.111-1.063l3.111-1.068c0.004-1.54,0-3.519,0-5.177
				C43.556,16.483,40.729,15.073,36.84,14.638z"/>
			<path style="fill:#766340;" d="M93.507,12.963c0-0.257-0.186-0.473-0.432-0.518C86.87,11.098,79.551,7.052,74.892,0
				c-10.617,2.553-20.893,3.259-28.14,3.185C39.508,3.259,29.231,2.553,18.615,0C13.957,7.052,6.636,11.098,0.431,12.446h0.001
				C0.184,12.492,0,12.707,0,12.966c0,0.18,0.092,0.34,0.23,0.433c2.121,1.579,3.383,3.054,5.097,4.428
				c3.051,2.446,6.528,1.36,7.985-0.209c-4.359,0.175-7.157-1.909-8.258-3.435c4.454-1.649,11.588-5.973,14.93-11.435
				c7.72,1.919,19.849,2.648,26.768,2.602c6.921,0.046,19.054-0.684,26.776-2.602C76.865,8.21,84,12.534,88.455,14.183
				c-1.102,1.525-3.901,3.609-8.258,3.435c1.454,1.569,4.934,2.655,7.983,0.209c1.716-1.376,2.98-2.855,5.106-4.431
				c0.005-0.007,0.01-0.009,0.019-0.017l0,0h0.003C93.429,13.284,93.507,13.132,93.507,12.963z"/>
		</g>
		<path style="fill:#A49802;" d="M87.143,35.476L87.143,35.476c-2.603-1.546-6.603-3.425-9.153-3.987v-4.35
			c-2.956,0.409-6.193,3.409-10.362,3.179c-2.303-0.13-5.444-1.206-5.635-5.585c-0.108-3.32,2.073-5.579,5.475-5.738
			c1.448-0.068,3.24,0.659,3.831,1.743c1.037,1.905,0.198,3.355-0.058,3.514c2.21-1.368,4.653-1.302,5.79-0.954
			c-2.367,0.644-4.587,1.803-5.532,2.283c-1.21,0.618-3.182,1.466-4.508,0.718c-1.108-0.629-1.461-2.134-0.962-2.962
			c0.515-0.858,1.899-0.811,2.023,0.112c0.094,0.711-0.177,1.1,0.117,1.429c0.321,0.361,1.772-0.113,2.011-1.476
			c0.241-1.362-0.775-2.711-2.786-2.639c-3.129,0.121-3.791,3.029-3.14,4.947c0.732,2.156,2.53,2.772,4.285,2.789
			c2.524,0.028,6.769-2.979,9.452-3.281v-9.425c-7.835-1.552-14.21,0.092-18.694,2.22v14.396c7.256,0.308,19.269,1.786,27.628,3.578
			l0,0c0.02,0.005,0.043,0.01,0.063,0.01c0.157,0,0.284-0.131,0.284-0.287C87.273,35.611,87.221,35.525,87.143,35.476z"/>
	</g>
</g>
</svg>
